<!DOCTYPE svg PUBLIC "-//W3C//DTD SVG 20010904//EN" "http://www.w3.org/TR/2001/REC-SVG-20010904/DTD/svg10.dtd">
<svg version="1.0" xmlns="http://www.w3.org/2000/svg" width="71px" height="71px" viewBox="0 0 710 710" preserveAspectRatio="xMidYMid meet">
<g id="layer101" fill="#000000" stroke="none">
 <path d="M2 553 l3 -158 43 -3 42 -3 0 -75 c0 -67 -2 -74 -20 -74 -13 0 -20 7 -20 20 0 26 -20 26 -27 0 -3 -11 -9 -20 -14 -20 -5 0 -9 -11 -9 -24 0 -20 12 -32 62 -60 l62 -35 -59 -3 c-54 -3 -60 -5 -63 -26 -4 -28 14 -52 38 -52 10 0 20 -9 23 -20 5 -18 14 -20 114 -20 65 0 113 4 120 11 8 8 13 8 17 0 17 -27 70 -8 230 85 142 82 166 99 166 120 0 13 -4 24 -9 24 -5 0 -11 9 -14 20 -3 11 -10 20 -16 20 -6 0 -11 -9 -11 -20 0 -13 -7 -20 -20 -20 -18 0 -20 7 -20 74 l0 75 43 3 42 3 3 158 c2 135 0 157 -13 157 -11 0 -15 -12 -16 -47 -2 -45 -2 -46 -8 -13 -4 22 -12 35 -21 35 -10 0 -16 -12 -19 -35 -3 -31 -5 -32 -10 -11 -9 34 -31 39 -31 7 l0 -26 -235 0 -235 0 0 26 c0 32 -22 27 -31 -7 -5 -21 -7 -20 -10 11 -3 23 -9 35 -19 35 -9 0 -17 -13 -21 -35 -6 -33 -6 -32 -8 13 -1 35 -5 47 -16 47 -13 0 -15 -22 -13 -157z m678 27 c0 -6 -115 -10 -325 -10 -210 0 -325 4 -325 10 0 6 115 10 325 10 210 0 325 -4 325 -10z m0 -50 c0 -6 -115 -10 -325 -10 -210 0 -325 4 -325 10 0 6 115 10 325 10 210 0 325 -4 325 -10z m-190 -49 c0 -13 -99 -41 -142 -41 -44 0 -121 24 -126 38 -3 9 34 12 132 12 77 0 136 -4 136 -9z m-453 -48 c-3 -10 -5 -2 -5 17 0 19 2 27 5 18 2 -10 2 -26 0 -35z m640 0 c-3 -10 -5 -2 -5 17 0 19 2 27 5 18 2 -10 2 -26 0 -35z m-537 1 c0 -8 -4 -14 -10 -14 -5 0 -10 9 -10 21 0 11 5 17 10 14 6 -3 10 -13 10 -21z m450 6 c0 -11 -4 -20 -10 -20 -5 0 -10 9 -10 20 0 11 5 20 10 20 6 0 10 -9 10 -20z m-315 -127 c28 -27 43 -33 80 -33 63 0 114 46 122 109 5 38 7 41 14 23 5 -13 17 -22 29 -22 18 0 20 -6 20 -75 0 -43 -4 -75 -10 -75 -5 0 -10 7 -10 15 0 20 -19 19 -27 -2 -5 -14 -8 -13 -14 5 -11 28 -27 28 -38 0 -6 -18 -9 -19 -14 -5 -8 21 -27 22 -27 2 0 -21 -26 -19 -35 3 -6 16 -7 16 -19 0 -16 -22 -36 -23 -36 -3 0 20 -19 19 -27 -2 -5 -14 -8 -13 -14 5 -11 28 -27 28 -38 0 -6 -18 -9 -19 -14 -5 -8 21 -27 22 -27 2 0 -8 -4 -15 -10 -15 -6 0 -10 32 -10 75 0 69 2 75 21 75 13 0 23 8 27 23 5 17 8 13 14 -23 5 -33 17 -54 43 -77z m165 83 c0 -14 -11 -37 -24 -52 -33 -39 -89 -39 -122 0 -13 15 -24 36 -24 46 0 17 9 20 78 23 42 1 80 4 85 5 4 1 7 -9 7 -22z m-300 -81 c0 -43 -4 -75 -10 -75 -6 0 -10 32 -10 75 0 43 4 75 10 75 6 0 10 -32 10 -75z m450 0 c0 -43 -4 -75 -10 -75 -6 0 -10 32 -10 75 0 43 4 75 10 75 6 0 10 -32 10 -75z m69 -109 c-2 -2 -71 -42 -153 -90 l-150 -86 -65 37 c-36 20 -106 60 -156 90 l-90 53 309 0 c170 0 307 -2 305 -4z m-471 -143 c3 -17 11 -23 40 -26 20 -2 -3 -4 -53 -5 -50 0 -84 2 -77 5 6 2 12 13 12 23 0 15 -9 20 -42 23 -24 2 -7 4 37 3 74 -1 80 -3 83 -23z"/>
 <path d="M154 185 c-7 -18 21 -44 49 -45 28 0 20 28 -13 45 -28 14 -31 14 -36 0z"/>
 <path d="M234 188 c-8 -13 30 -48 52 -48 23 0 16 26 -11 44 -29 19 -32 19 -41 4z"/>
 <path d="M433 183 c-26 -17 -31 -43 -9 -43 22 0 60 35 52 48 -9 15 -16 14 -43 -5z"/>
 <path d="M517 184 c-30 -16 -37 -44 -9 -44 21 1 52 23 52 38 0 19 -14 21 -43 6z"/>
 <path d="M244 128 c-8 -13 30 -48 52 -48 22 0 17 27 -8 44 -27 19 -35 20 -44 4z"/>
 <path d="M422 124 c-25 -17 -30 -44 -8 -44 22 0 60 35 52 48 -9 16 -17 15 -44 -4z"/>
 </g>

</svg>