<!DOCTYPE svg PUBLIC "-//W3C//DTD SVG 20010904//EN" "http://www.w3.org/TR/2001/REC-SVG-20010904/DTD/svg10.dtd">
<svg version="1.0" xmlns="http://www.w3.org/2000/svg" width="75px" height="72px" viewBox="0 0 750 720" preserveAspectRatio="xMidYMid meet">
<g id="layer101" fill="#000000" stroke="none">
 <path d="M20 695 c0 -14 -4 -25 -10 -25 -5 0 -10 -7 -10 -15 0 -8 5 -15 10 -15 6 0 10 -9 10 -20 0 -21 19 -27 36 -10 6 6 63 -83 157 -243 l147 -253 102 4 c102 4 128 12 128 38 0 23 20 16 30 -11 11 -29 5 -51 -24 -83 -21 -23 -21 -24 -2 -38 41 -30 119 -9 145 39 19 36 -2 170 -31 189 -7 4 -63 7 -124 6 l-112 -3 26 45 c138 237 191 320 196 311 12 -18 36 -12 36 9 0 11 5 20 10 20 6 0 10 7 10 15 0 8 -4 15 -10 15 -5 0 -10 11 -10 25 0 18 -5 25 -20 25 -15 0 -20 -7 -20 -25 0 -14 -4 -25 -10 -25 -5 0 -40 -52 -77 -115 -37 -63 -68 -113 -70 -111 -6 6 79 190 93 201 10 7 14 22 12 40 l-3 30 -260 0 -260 0 -3 -30 c-2 -18 2 -33 12 -40 14 -11 99 -195 93 -201 -2 -2 -33 48 -70 111 -37 63 -72 115 -77 115 -6 0 -10 11 -10 25 0 18 -5 25 -20 25 -15 0 -20 -7 -20 -25z m590 -15 c0 -6 -85 -10 -235 -10 -150 0 -235 4 -235 10 0 6 85 10 235 10 150 0 235 -4 235 -10z m-333 -70 l11 -30 -42 0 c-36 0 -45 4 -54 25 -16 36 -17 35 31 35 38 0 44 -3 54 -30z m160 18 c-3 -7 -18 -42 -33 -77 l-28 -65 -32 70 c-18 38 -33 72 -33 77 -1 4 29 7 65 7 49 0 65 -3 61 -12z m133 7 c0 -2 -5 -16 -12 -30 -9 -21 -18 -25 -54 -25 l-42 0 11 30 c10 27 16 30 54 30 24 0 43 -2 43 -5z m-239 -137 c17 -38 30 -53 44 -53 14 0 27 15 44 53 24 51 26 52 68 52 24 0 43 -2 43 -4 0 -5 -150 -360 -154 -363 -2 -3 -126 283 -153 355 -4 8 8 12 39 12 44 0 45 -1 69 -52z m289 -285 c-83 -4 -106 -16 -76 -39 18 -13 12 -14 -55 -12 -68 1 -70 2 -24 7 35 4 51 11 53 23 2 9 -5 18 -15 21 -10 3 29 4 87 4 84 -1 90 -2 30 -4z m94 -76 c8 -22 6 -32 -11 -55 -11 -15 -30 -28 -42 -30 -20 -3 -21 -1 -11 18 7 12 10 40 8 62 -3 37 -2 39 22 36 17 -2 28 -12 34 -31z"/>
 <path d="M146 249 c-19 -19 -19 -19 2 -39 23 -22 42 -26 42 -10 0 6 7 10 15 10 21 0 19 22 -5 43 -25 21 -30 21 -54 -4z"/>
 <path d="M17 139 c-20 -12 -23 -49 -5 -67 7 -7 35 -12 63 -12 46 0 53 -3 63 -25 11 -24 15 -25 111 -25 108 0 128 9 117 54 -6 23 -30 36 -73 36 -12 0 -24 8 -28 19 -3 10 -16 22 -28 25 -36 10 -201 6 -220 -5z m205 -41 c-27 -27 -13 -38 49 -38 37 0 58 -4 54 -10 -8 -13 -142 -13 -150 0 -3 5 -1 10 5 10 6 0 10 8 8 18 -3 14 -17 18 -78 23 l-75 5 99 2 c78 2 97 -1 88 -10z"/>
 <path d="M473 65 c-7 -8 -13 -19 -13 -25 0 -15 25 -40 40 -40 15 0 40 25 40 40 0 16 -26 40 -42 40 -7 -1 -19 -7 -25 -15z"/>
 </g>

</svg>