<!DOCTYPE svg PUBLIC "-//W3C//DTD SVG 20010904//EN" "http://www.w3.org/TR/2001/REC-SVG-20010904/DTD/svg10.dtd">
<svg version="1.0" xmlns="http://www.w3.org/2000/svg" width="74px" height="69px" viewBox="0 0 740 690" preserveAspectRatio="xMidYMid meet">
<g id="layer101" fill="#000000" stroke="none">
 <path d="M0 652 c0 -30 17 -63 95 -180 52 -78 100 -142 107 -142 6 0 21 9 33 20 l22 20 79 -135 c49 -83 85 -135 95 -135 9 0 28 22 43 50 27 50 28 50 44 30 15 -19 26 -21 117 -18 l100 3 3 29 c4 35 -10 46 -60 46 -31 0 -38 4 -38 19 0 21 -19 31 -56 31 -13 0 -24 2 -24 5 0 3 41 75 90 161 72 124 90 163 90 195 l0 39 -370 0 -370 0 0 -38z m710 -3 c0 -6 -39 -81 -88 -165 -81 -143 -88 -153 -101 -134 -13 19 -51 28 -51 13 0 -5 -9 -19 -19 -32 -18 -23 -18 -23 -46 -5 -27 17 -27 17 -44 -5 l-18 -23 -47 81 c-49 83 -84 108 -73 52 4 -18 1 -33 -7 -40 -10 -9 -32 18 -99 119 -48 71 -87 134 -87 140 0 6 119 10 340 10 245 0 340 -3 340 -11z m-235 -424 c-20 -36 -40 -65 -43 -65 -16 0 -62 93 -56 112 6 19 7 19 31 -4 l25 -23 30 38 c26 32 33 36 40 23 6 -11 -2 -35 -27 -81z m123 14 c-33 -19 -18 -29 41 -29 33 0 63 -4 66 -10 4 -6 -24 -10 -76 -10 -65 0 -80 3 -71 12 19 19 14 36 -10 41 -13 2 -3 5 22 5 35 1 41 -1 28 -9z"/>
 <path d="M465 595 c-57 -41 -61 -43 -87 -29 -38 20 -55 18 -93 -12 l-35 -26 -57 51 c-58 52 -83 63 -83 37 0 -18 120 -126 139 -126 8 0 30 12 48 26 34 26 35 26 73 9 l39 -18 75 54 c42 30 76 60 76 67 0 23 -35 11 -95 -33z"/>
 <path d="M10 116 c-6 -8 -10 -25 -8 -38 3 -21 9 -23 63 -26 51 -2 62 -6 70 -25 9 -21 16 -22 115 -22 l105 0 0 35 c0 35 0 35 -47 38 -39 3 -48 7 -48 21 0 27 -19 31 -135 31 -77 0 -106 -4 -115 -14z m215 -26 c3 -5 -1 -10 -9 -10 -9 0 -16 -7 -16 -15 0 -12 13 -15 60 -15 33 0 60 -4 60 -10 0 -6 -32 -10 -75 -10 -43 0 -75 4 -75 10 0 6 5 10 10 10 6 0 10 7 10 15 0 12 -15 15 -76 15 -47 0 -73 4 -69 10 8 13 172 13 180 0z"/>
 </g>

</svg>