<!DOCTYPE svg PUBLIC "-//W3C//DTD SVG 20010904//EN" "http://www.w3.org/TR/2001/REC-SVG-20010904/DTD/svg10.dtd">
<svg version="1.0" xmlns="http://www.w3.org/2000/svg" width="71px" height="71px" viewBox="0 0 710 710" preserveAspectRatio="xMidYMid meet">
<g id="layer101" fill="#000000" stroke="none">
 <path d="M263 690 c-5 -19 -13 -20 -122 -20 -78 0 -121 -4 -129 -12 -17 -17 -17 -529 0 -546 8 -8 51 -12 129 -12 l118 0 3 -47 3 -48 220 0 220 0 3 268 c2 233 0 267 -13 267 -8 0 -15 7 -15 15 0 8 7 15 15 15 13 0 15 12 13 68 l-3 67 -218 3 c-212 2 -219 2 -224 -18z m337 -55 c0 -33 4 -45 15 -45 11 0 15 12 15 45 0 41 2 45 25 45 22 0 25 -4 25 -35 0 -22 -8 -43 -20 -55 -11 -11 -20 -27 -20 -35 0 -8 9 -24 20 -35 19 -19 20 -33 20 -255 l0 -235 -25 0 -25 0 0 245 c0 211 -2 245 -15 245 -13 0 -15 -34 -15 -245 l0 -245 -115 0 -115 0 0 30 c0 20 -5 30 -15 30 -10 0 -15 -10 -15 -30 0 -25 -4 -30 -25 -30 -22 0 -25 4 -25 35 0 35 0 35 46 35 88 0 84 -15 84 285 l0 264 -27 15 c-26 14 -20 15 90 16 l117 0 0 -45z m-215 -250 l0 -240 -177 -3 -178 -2 0 245 0 245 178 -2 177 -3 0 -240z"/>
 <path d="M447 564 c-9 -10 2 -24 19 -24 8 0 14 7 14 15 0 15 -21 21 -33 9z"/>
 <path d="M490 555 c0 -8 7 -15 15 -15 8 0 15 7 15 15 0 8 -7 15 -15 15 -8 0 -15 -7 -15 -15z"/>
 <path d="M540 555 c0 -8 7 -15 15 -15 8 0 15 7 15 15 0 8 -7 15 -15 15 -8 0 -15 -7 -15 -15z"/>
 <path d="M590 555 c0 -8 7 -15 15 -15 8 0 15 7 15 15 0 8 -7 15 -15 15 -8 0 -15 -7 -15 -15z"/>
 <path d="M440 400 c0 -98 3 -122 15 -126 8 -4 15 -14 15 -24 0 -11 5 -22 10 -25 12 -7 14 -45 2 -45 -4 0 -13 5 -20 12 -9 9 -15 9 -24 0 -14 -14 3 -38 33 -47 13 -4 19 -16 19 -36 0 -19 5 -29 15 -29 9 0 15 9 15 24 0 17 10 31 30 43 17 10 29 24 27 33 -3 16 -10 16 -39 5 -23 -9 -25 27 -3 45 23 19 13 35 -21 35 l-29 0 -3 128 c-2 119 -4 127 -22 127 -19 0 -20 -7 -20 -120z"/>
 <path d="M490 395 c0 -104 2 -125 15 -125 13 0 15 21 15 125 0 104 -2 125 -15 125 -13 0 -15 -21 -15 -125z"/>
 <path d="M540 395 c0 -104 2 -125 15 -125 13 0 15 21 15 125 0 104 -2 125 -15 125 -13 0 -15 -21 -15 -125z"/>
 <path d="M87 594 c-4 -4 -7 -13 -7 -21 0 -11 25 -13 128 -11 105 3 127 6 127 18 0 12 -21 15 -121 18 -66 1 -123 -1 -127 -4z"/>
 <path d="M153 525 c-78 -33 -97 -146 -35 -207 63 -63 175 -42 208 39 29 68 0 141 -67 167 -48 19 -64 19 -106 1z m92 -31 c14 -6 14 -8 -2 -26 -10 -11 -17 -34 -16 -56 1 -20 -3 -43 -9 -49 -6 -7 -8 -22 -5 -33 8 -32 -20 -24 -39 11 -15 30 -15 32 5 46 27 18 27 37 0 64 -11 11 -18 27 -15 35 6 14 52 19 81 8z m-103 -90 c-22 -16 -33 -5 -25 24 5 22 7 22 24 6 18 -16 18 -18 1 -30z m156 5 c2 -35 -30 -91 -44 -77 -4 4 -1 14 5 22 8 9 10 27 6 45 -4 17 -3 35 0 41 13 20 30 4 33 -31z"/>
 <path d="M80 235 c0 -13 18 -15 127 -13 90 2 128 7 131 16 3 9 -27 12 -127 12 -111 0 -131 -2 -131 -15z"/>
 <path d="M82 193 c3 -16 16 -18 128 -18 104 0 125 2 125 15 0 12 -22 15 -128 18 -119 2 -128 1 -125 -15z"/>
 </g>

</svg>