<!DOCTYPE svg PUBLIC "-//W3C//DTD SVG 20010904//EN" "http://www.w3.org/TR/2001/REC-SVG-20010904/DTD/svg10.dtd">
<svg version="1.0" xmlns="http://www.w3.org/2000/svg" width="276px" height="240px" viewBox="0 0 2760 2400" preserveAspectRatio="xMidYMid meet">
<g id="layer101" fill="#790305" stroke="none">
 <path d="M875 2389 c-628 -11 -875 -31 -875 -70 0 -23 66 -38 201 -48 309 -22 312 -22 331 -4 18 16 18 16 3 -13 -13 -25 -15 -107 -15 -601 0 -480 -2 -573 -14 -573 -23 0 -40 -30 -42 -76 -2 -39 -7 -49 -45 -83 l-43 -38 17 -74 c10 -41 29 -99 44 -129 14 -30 27 -70 28 -89 2 -39 34 -71 71 -71 14 0 50 -9 82 -19 31 -11 86 -23 122 -27 l64 -7 -54 -21 c-30 -11 -71 -37 -92 -58 -56 -56 -53 -81 34 -228 65 -111 76 -125 116 -142 34 -16 56 -19 96 -14 119 15 204 81 315 244 68 99 109 133 131 107 17 -21 74 -29 112 -16 29 10 34 9 66 -21 19 -18 52 -60 75 -93 81 -120 137 -183 180 -204 51 -25 114 -27 144 -6 12 9 61 65 109 126 99 127 100 132 28 209 -43 46 -44 48 -22 53 13 4 61 31 107 62 76 49 90 55 138 55 74 0 93 20 93 99 0 42 6 70 20 93 29 50 50 117 54 171 4 66 -20 60 -48 -13 l-21 -55 -5 123 c-5 120 -11 141 -42 142 -5 0 -8 260 -8 578 0 562 -1 578 -20 612 l-21 35 21 -24 c20 -24 22 -24 153 -17 230 12 297 23 297 51 0 29 -49 41 -210 50 -58 3 -136 8 -175 12 -123 10 -1127 18 -1500 12z"/>
 </g>
<g id="layer102" fill="#502123" stroke="none">
 <path d="M875 2389 c-628 -11 -875 -31 -875 -70 0 -23 66 -38 201 -48 309 -22 312 -22 331 -4 18 16 18 16 3 -13 -13 -25 -15 -107 -15 -601 0 -480 -2 -573 -14 -573 -23 0 -40 -30 -42 -76 -2 -39 -7 -49 -45 -83 l-43 -38 17 -74 c10 -41 29 -99 44 -129 14 -30 27 -70 28 -89 2 -39 34 -71 71 -71 14 0 53 -10 87 -21 38 -13 90 -22 133 -23 l72 -1 -66 -24 c-41 -16 -80 -39 -104 -63 -56 -56 -53 -80 34 -228 65 -111 77 -125 116 -143 34 -15 56 -18 96 -13 119 15 204 81 315 244 68 99 109 133 131 107 17 -21 74 -29 112 -16 29 10 34 9 66 -21 19 -18 52 -60 75 -93 118 -175 177 -225 267 -225 39 0 48 5 87 45 24 25 41 50 38 56 -4 5 -1 8 7 7 7 -2 13 4 13 12 0 19 57 109 68 110 5 0 -8 -23 -28 -50 -52 -70 -38 -62 19 11 57 73 56 89 -10 159 -43 46 -44 48 -22 53 13 4 61 31 107 62 76 49 90 55 138 55 74 0 93 20 93 99 0 42 6 70 20 93 29 50 50 117 54 171 4 67 -23 61 -44 -11 -8 -28 -18 -52 -22 -52 -5 0 -8 51 -8 114 0 91 -3 118 -16 130 -8 9 -20 16 -25 16 -5 0 -9 229 -9 578 0 562 -1 578 -20 612 l-21 35 21 -24 c20 -24 22 -24 153 -17 230 12 297 23 297 51 0 29 -49 41 -210 50 -58 3 -136 8 -175 12 -123 10 -1127 18 -1500 12z m764 -121 l-1 -43 -9 33 c-8 27 -14 32 -42 33 -18 1 -45 5 -62 9 -23 6 -12 8 43 9 l72 1 -1 -42z m-409 -1178 c0 -11 -4 -20 -10 -20 -5 0 -10 9 -10 20 0 11 5 20 10 20 6 0 10 -9 10 -20z m53 3 c-7 -2 -21 -2 -30 0 -10 3 -4 5 12 5 17 0 24 -2 18 -5z m1097 -313 c-16 -31 -79 -99 -103 -112 -11 -5 5 15 36 45 30 31 58 65 62 77 4 12 9 19 12 17 2 -3 -1 -15 -7 -27z m-27 -120 c-9 -17 -37 -49 -62 -73 -39 -38 -38 -35 15 30 33 40 60 72 62 73 2 0 -5 -14 -15 -30z m-1123 -30 c0 -22 -4 -40 -8 -40 -4 0 -9 18 -10 40 -2 23 2 40 8 40 5 0 10 -18 10 -40z m1015 20 c-3 -5 -12 -10 -18 -10 -7 0 -6 4 3 10 19 12 23 12 15 0z m-910 -66 c50 -20 77 -25 124 -22 56 3 59 2 44 -14 -21 -23 -11 -23 29 2 46 28 53 25 53 -17 0 -38 1 -39 82 -79 102 -50 114 -60 33 -27 -34 13 -88 30 -121 36 -46 8 -59 14 -59 28 0 26 -28 37 -85 36 -40 -2 -56 3 -75 21 -13 12 -47 31 -74 41 -28 11 -43 20 -34 20 10 1 47 -11 83 -25z m11 -70 c-9 -8 -16 -19 -16 -24 0 -5 -6 -7 -13 -4 -7 2 -60 11 -118 18 l-104 14 118 -1 c64 0 120 3 124 6 3 4 10 7 15 7 5 0 2 -7 -6 -16z m-58 -51 c-10 -2 -26 -2 -35 0 -10 3 -2 5 17 5 19 0 27 -2 18 -5z m-81 -9 c-3 -3 -12 -4 -19 -1 -8 3 -5 6 6 6 11 1 17 -2 13 -5z m120 -46 c-3 -8 -6 -5 -6 6 -1 11 2 17 5 13 3 -3 4 -12 1 -19z m190 -15 c-4 -3 -7 0 -7 7 0 7 3 10 7 7 3 -4 3 -10 0 -14z m-755 -143 c9 -1 7 -4 -3 -10 -20 -12 -74 3 -100 26 -11 10 -19 28 -19 41 0 23 2 22 55 -17 30 -22 60 -40 67 -40z"/>
 </g>
<g id="layer103" fill="#92070a" stroke="none">
 <path d="M737 2383 c-2 -2 -66 -4 -141 -4 -75 0 -135 -3 -132 -7 2 -4 -23 -5 -57 -4 -68 4 -278 -15 -314 -29 -35 -13 -28 -37 15 -48 65 -18 176 -26 168 -13 -4 7 -3 12 3 12 5 0 11 -5 13 -11 2 -7 46 -13 115 -17 l112 -5 31 32 c17 17 37 31 43 31 7 0 0 -8 -14 -17 -60 -37 -59 -30 -59 -653 0 -478 -2 -570 -14 -570 -23 0 -40 -30 -42 -76 -2 -39 -7 -49 -45 -83 l-43 -38 17 -74 c10 -41 29 -99 44 -129 14 -30 27 -70 28 -89 2 -39 34 -71 71 -71 14 0 53 -10 87 -21 38 -13 90 -22 133 -23 l72 -1 -66 -24 c-41 -16 -80 -39 -104 -63 -56 -56 -53 -80 34 -228 65 -111 77 -125 116 -143 34 -15 56 -18 96 -13 119 15 204 81 315 244 68 99 109 133 131 107 17 -21 74 -29 112 -16 29 10 34 9 66 -21 19 -18 52 -60 75 -93 118 -175 177 -225 267 -225 39 0 48 5 87 45 24 25 41 50 38 56 -4 5 -1 8 7 7 7 -2 13 4 13 12 0 19 57 109 68 110 5 0 -8 -23 -28 -50 -52 -70 -38 -62 19 11 57 73 56 89 -10 159 -43 46 -44 48 -22 53 13 4 61 31 107 62 76 49 90 55 138 55 74 0 93 20 93 99 0 42 6 70 20 93 29 50 50 117 54 171 4 67 -23 61 -44 -11 -8 -28 -18 -52 -22 -52 -5 0 -8 51 -8 114 0 91 -3 118 -16 130 -8 9 -20 16 -25 16 -5 0 -9 229 -9 579 l0 578 -26 39 -26 39 29 -28 c29 -27 31 -28 124 -22 230 15 323 44 237 74 -33 12 -209 32 -271 31 -18 0 -111 4 -207 8 -171 8 -1446 13 -1453 5z m-586 -56 c-6 -8 -8 -17 -4 -20 3 -4 2 -7 -4 -7 -17 0 -23 13 -12 27 6 7 16 13 21 13 7 0 6 -5 -1 -13z m2478 4 c14 -9 7 -31 -10 -31 -6 0 -7 5 -3 11 3 6 0 15 -7 20 -8 5 -9 9 -4 9 6 0 16 -4 24 -9z m-1961 -8 c-10 -2 -26 -2 -35 0 -10 3 -2 5 17 5 19 0 27 -2 18 -5z m1555 0 c-7 -2 -19 -2 -25 0 -7 3 -2 5 12 5 14 0 19 -2 13 -5z m-584 -50 c-1 -45 -1 -46 -10 -17 -8 29 -11 30 -96 42 -49 7 -104 14 -123 15 -19 2 25 5 98 5 l132 2 -1 -47z m956 19 c-3 -3 -11 0 -18 7 -9 10 -8 11 6 5 10 -3 15 -9 12 -12z m-2418 1 c-4 -3 -10 -3 -14 0 -3 4 0 7 7 7 7 0 10 -3 7 -7z m1053 -1203 c0 -11 -4 -20 -10 -20 -5 0 -10 9 -10 20 0 11 5 20 10 20 6 0 10 -9 10 -20z m53 3 c-7 -2 -21 -2 -30 0 -10 3 -4 5 12 5 17 0 24 -2 18 -5z m364 -10 c-4 -3 -7 0 -7 7 0 7 3 10 7 7 3 -4 3 -10 0 -14z m733 -303 c-16 -31 -79 -99 -103 -112 -11 -5 5 15 36 45 30 31 58 65 62 77 4 12 9 19 12 17 2 -3 -1 -15 -7 -27z m-27 -120 c-9 -17 -37 -49 -62 -73 -39 -38 -38 -35 15 30 33 40 60 72 62 73 2 0 -5 -14 -15 -30z m-1123 -30 c0 -22 -4 -40 -10 -40 -5 0 -10 18 -10 40 0 22 5 40 10 40 6 0 10 -18 10 -40z m1015 20 c-3 -5 -12 -10 -18 -10 -7 0 -6 4 3 10 19 12 23 12 15 0z m-910 -66 c50 -20 77 -25 124 -22 56 3 59 2 44 -14 -21 -23 -11 -23 29 2 46 28 53 25 53 -17 0 -38 1 -39 82 -79 102 -50 114 -60 33 -27 -34 13 -88 30 -121 36 -46 8 -59 14 -59 28 0 26 -28 37 -85 36 -40 -2 -56 3 -75 21 -13 12 -47 31 -74 41 -28 11 -43 20 -34 20 10 1 47 -11 83 -25z m11 -70 c-9 -8 -16 -19 -16 -24 0 -5 -6 -7 -13 -4 -7 2 -60 11 -118 18 l-104 14 118 -1 c64 0 120 3 124 6 3 4 10 7 15 7 5 0 2 -7 -6 -16z m-58 -51 c-10 -2 -26 -2 -35 0 -10 3 -2 5 17 5 19 0 27 -2 18 -5z m-81 -9 c-3 -3 -12 -4 -19 -1 -8 3 -5 6 6 6 11 1 17 -2 13 -5z m120 -46 c-3 -8 -6 -5 -6 6 -1 11 2 17 5 13 3 -3 4 -12 1 -19z m190 -15 c-4 -3 -7 0 -7 7 0 7 3 10 7 7 3 -4 3 -10 0 -14z m-755 -143 c9 -1 7 -4 -3 -10 -20 -12 -74 3 -100 26 -11 10 -19 28 -19 41 0 23 2 22 55 -17 30 -22 60 -40 67 -40z"/>
 </g>
<g id="layer104" fill="#b30a0e" stroke="none">
 <path d="M737 2383 c-2 -2 -66 -4 -141 -4 -75 0 -135 -3 -132 -7 2 -4 -23 -5 -57 -4 -68 4 -278 -15 -314 -29 -35 -13 -28 -37 15 -48 65 -18 176 -26 168 -13 -4 7 -3 12 3 12 5 0 11 -5 13 -11 2 -7 46 -13 115 -17 l112 -5 31 32 c17 17 37 31 43 31 7 0 0 -8 -14 -17 -60 -37 -59 -30 -59 -653 0 -478 -2 -570 -14 -570 -23 0 -40 -30 -42 -77 -2 -38 -8 -49 -42 -81 -35 -32 -39 -42 -36 -72 6 -51 33 -139 57 -185 11 -22 22 -55 22 -74 2 -42 34 -71 78 -71 l30 0 -19 22 c-13 16 -14 19 -2 10 9 -7 49 -15 90 -18 40 -3 113 -12 162 -20 105 -18 206 -7 288 31 48 22 49 24 22 27 -20 3 -10 7 34 12 l62 9 1 91 c0 60 3 84 9 71 5 -11 9 -36 9 -55 1 -31 4 -35 29 -36 16 -1 55 -13 88 -28 39 -18 81 -29 122 -31 35 -2 77 -7 93 -10 37 -8 66 1 72 23 3 9 2 -4 0 -30 -9 -80 -2 -92 86 -136 84 -42 198 -68 256 -59 30 5 45 -5 45 -29 0 -2 -24 -4 -54 -4 -30 0 -66 -4 -81 -10 -22 -8 -37 -4 -98 29 -75 41 -136 64 -199 75 -37 7 -38 6 -38 -23 0 -17 -11 -42 -25 -59 l-24 -29 30 -29 c17 -16 49 -56 72 -89 107 -159 179 -226 243 -225 13 0 46 38 102 114 73 100 88 115 120 122 20 4 40 7 45 6 11 -3 9 26 -4 51 -6 12 -30 41 -52 65 -23 23 -36 42 -30 42 14 0 176 158 221 217 l33 42 -43 -18 c-24 -11 -59 -22 -78 -25 -27 -4 -22 -1 18 14 66 24 127 68 170 122 l32 41 0 128 c0 103 -3 131 -16 143 -8 9 -20 16 -25 16 -5 0 -9 229 -9 579 l0 578 -26 39 -26 39 29 -28 c29 -27 31 -28 124 -22 230 15 323 44 237 74 -33 12 -209 32 -271 31 -18 0 -111 4 -207 8 -171 8 -1446 13 -1453 5z m-586 -56 c-6 -8 -8 -17 -4 -20 3 -4 2 -7 -4 -7 -17 0 -23 13 -12 27 6 7 16 13 21 13 7 0 6 -5 -1 -13z m2478 4 c14 -9 7 -31 -10 -31 -6 0 -7 5 -3 11 3 6 0 15 -7 20 -8 5 -9 9 -4 9 6 0 16 -4 24 -9z m-1961 -8 c-10 -2 -26 -2 -35 0 -10 3 -2 5 17 5 19 0 27 -2 18 -5z m1555 0 c-7 -2 -19 -2 -25 0 -7 3 -2 5 12 5 14 0 19 -2 13 -5z m-1000 -23 c-3 -11 -7 -20 -9 -20 -2 0 -4 9 -4 20 0 11 4 20 9 20 5 0 7 -9 4 -20z m415 -232 l-2 -253 -6 220 c-4 121 -7 220 -8 221 -1 0 -28 2 -59 3 -54 2 -207 25 -246 37 -45 14 6 22 158 23 l165 2 -2 -253z m957 224 c-3 -3 -11 0 -18 7 -9 10 -8 11 6 5 10 -3 15 -9 12 -12z m-2418 1 c-4 -3 -10 -3 -14 0 -3 4 0 7 7 7 7 0 10 -3 7 -7z m1460 -915 c-2 -35 -3 -9 -3 57 0 66 1 94 3 63 2 -32 2 -86 0 -120z m-416 -168 c2 -41 5 -81 7 -87 3 -9 35 -13 112 -13 59 0 122 -3 140 -6 l32 -7 -33 -14 c-19 -8 -87 -17 -151 -20 l-118 -6 0 118 c0 131 7 152 11 35z m429 -120 c0 -5 -4 -10 -10 -10 -5 0 -10 5 -10 10 0 6 5 10 10 10 6 0 10 -4 10 -10z m457 -486 c-3 -3 -12 -4 -19 -1 -8 3 -5 6 6 6 11 1 17 -2 13 -5z m-1040 -41 c-4 -3 -10 -3 -14 0 -3 4 0 7 7 7 7 0 10 -3 7 -7z m1033 -303 c0 -5 -10 -10 -22 -10 -19 0 -20 2 -8 10 19 13 30 13 30 0z"/>
 <path d="M2302 599 l-74 -79 56 0 c77 0 96 19 96 100 0 33 -1 60 -2 59 -2 0 -36 -36 -76 -80z"/>
 <path d="M1339 493 c-6 -16 -9 -47 -6 -71 3 -29 1 -42 -7 -39 -6 2 -12 20 -14 40 -4 43 3 41 -126 22 -55 -8 -102 -13 -104 -10 -3 3 0 5 6 5 6 0 12 10 14 23 2 18 11 23 48 28 29 4 4 6 -70 7 -262 3 -460 -79 -460 -191 0 -38 31 -72 76 -83 15 -4 43 -37 82 -97 32 -51 62 -100 66 -111 5 -16 13 -18 59 -12 121 16 204 80 316 244 69 100 107 131 132 107 22 -22 75 -27 113 -11 30 12 36 21 46 68 8 38 9 61 1 81 -10 26 -13 27 -86 27 -73 0 -76 -1 -86 -27z m-576 -189 c47 -29 60 -34 73 -24 8 7 17 10 20 7 11 -10 -83 -57 -115 -57 -85 0 -133 70 -88 128 8 10 14 10 31 -3 12 -8 47 -31 79 -51z"/>
 </g>
<g id="layer105" fill="#d10e12" stroke="none">
 <path d="M737 2383 c-2 -2 -66 -4 -141 -4 -75 0 -135 -3 -132 -7 2 -4 -23 -5 -57 -4 -68 4 -278 -15 -314 -29 -35 -13 -28 -37 15 -48 65 -18 176 -26 168 -13 -4 7 -3 12 3 12 5 0 11 -5 13 -11 2 -7 46 -13 115 -17 l112 -5 31 32 c17 17 37 31 43 31 7 0 0 -8 -14 -17 -60 -37 -59 -30 -59 -652 0 -559 0 -569 -20 -574 -25 -6 -43 -53 -37 -94 5 -26 0 -36 -26 -57 -17 -14 -26 -26 -21 -26 6 0 20 -33 33 -72 26 -83 84 -166 139 -202 72 -47 250 -96 351 -96 35 0 62 2 60 4 -2 3 -36 11 -76 20 -88 18 -138 43 -183 92 l-35 38 44 -38 c70 -61 122 -80 221 -80 47 -1 120 6 163 14 l77 15 1 435 c1 239 5 422 9 405 4 -16 9 -79 10 -140 1 -60 4 -101 7 -90 3 11 8 23 12 27 11 12 71 17 77 7 3 -5 18 -9 35 -9 16 0 29 -4 29 -10 0 -5 7 -10 15 -10 9 0 12 -6 9 -15 -4 -8 -1 -15 7 -15 7 0 9 -3 6 -7 -4 -3 -2 -12 4 -20 9 -10 8 -13 -1 -13 -8 0 -10 -3 -6 -7 9 -9 196 -31 199 -24 2 3 0 254 -3 556 -3 303 -7 536 -8 518 -2 -40 -14 -48 -32 -23 -8 11 -29 25 -47 31 -18 6 -33 14 -33 19 0 5 -17 12 -37 15 -35 6 -157 29 -211 41 -17 3 -25 -1 -32 -18 -7 -19 -9 -15 -9 22 l-1 45 215 3 215 4 2 -619 c3 -547 -1 -674 -19 -625 -3 8 -9 10 -16 4 -7 -6 -38 -15 -70 -22 -53 -11 -65 -18 -133 -86 -74 -75 -81 -78 -156 -77 -16 0 -18 -11 -18 -83 0 -76 1 -82 19 -77 12 3 54 -12 100 -36 54 -28 94 -41 120 -41 56 0 141 -20 141 -32 0 -20 12 1 20 34 8 31 8 31 9 -14 l1 -48 103 -2 102 -2 -86 -3 -86 -4 3 -37 c3 -46 28 -67 97 -82 73 -16 170 -24 199 -17 13 4 67 41 119 83 76 62 88 76 64 71 -16 -4 -66 -9 -110 -11 l-80 -5 72 8 c142 17 244 67 312 155 31 39 31 39 31 167 0 103 -3 131 -16 143 -8 9 -20 16 -25 16 -5 0 -9 229 -9 579 l0 578 -26 39 -26 39 29 -28 c29 -27 31 -28 124 -22 230 15 323 44 237 74 -33 12 -209 32 -271 31 -18 0 -111 4 -207 8 -171 8 -1446 13 -1453 5z m-586 -56 c-6 -8 -8 -17 -4 -20 3 -4 2 -7 -4 -7 -17 0 -23 13 -12 27 6 7 16 13 21 13 7 0 6 -5 -1 -13z m2478 4 c14 -9 7 -31 -10 -31 -6 0 -7 5 -3 11 3 6 0 15 -7 20 -8 5 -9 9 -4 9 6 0 16 -4 24 -9z m-1961 -8 c-10 -2 -26 -2 -35 0 -10 3 -2 5 17 5 19 0 27 -2 18 -5z m1555 0 c-7 -2 -19 -2 -25 0 -7 3 -2 5 12 5 14 0 19 -2 13 -5z m372 -31 c-3 -3 -11 0 -18 7 -9 10 -8 11 6 5 10 -3 15 -9 12 -12z m-2418 1 c-4 -3 -10 -3 -14 0 -3 4 0 7 7 7 7 0 10 -3 7 -7z m430 -1280 c-3 -10 -5 -2 -5 17 0 19 2 27 5 18 2 -10 2 -26 0 -35z m98 -313 c3 -5 4 -10 1 -10 -3 0 -8 5 -11 10 -3 6 -4 10 -1 10 3 0 8 -4 11 -10z"/>
 <path d="M2302 599 l-74 -79 56 0 c77 0 96 19 96 100 0 33 -1 60 -2 59 -2 0 -36 -36 -76 -80z"/>
 <path d="M464 607 c-14 -39 34 -91 80 -85 21 3 19 7 -26 51 -34 34 -50 44 -54 34z"/>
 <path d="M1358 495 c-20 -27 -24 -105 -8 -136 9 -15 22 -19 65 -19 34 0 59 5 69 15 22 22 31 98 15 126 -7 13 -12 27 -11 32 1 4 -24 7 -55 7 -50 -1 -61 -4 -75 -25z"/>
 <path d="M854 470 c-89 -19 -130 -33 -74 -25 l35 6 -35 -20 -35 -20 81 -1 c68 0 86 4 114 23 19 12 33 27 31 32 -1 6 8 13 21 17 52 14 -61 5 -138 -12z"/>
 <path d="M1145 434 c-91 -18 -174 -60 -255 -129 -35 -30 -77 -61 -92 -68 -16 -6 -27 -15 -26 -18 2 -3 32 -51 68 -107 74 -115 80 -118 168 -77 67 31 131 96 212 213 35 52 70 96 77 99 11 4 11 9 -3 24 -10 12 -15 29 -12 49 4 29 3 30 -31 29 -20 0 -67 -7 -106 -15z"/>
 <path d="M1594 432 c9 -14 -12 -76 -33 -98 -19 -21 -18 -22 33 -95 86 -126 145 -195 181 -215 l35 -19 24 25 c13 14 53 68 90 122 l66 96 -35 22 c-47 29 -44 33 9 9 l45 -19 27 25 c14 13 31 22 36 19 6 -4 5 3 -2 16 -7 13 -17 19 -27 16 -8 -3 -46 -6 -85 -6 -61 0 -69 -2 -58 -15 6 -8 -25 8 -70 35 -45 27 -107 59 -136 70 -56 20 -109 27 -100 12z"/>
 </g>
<g id="layer106" fill="#a42c2e" stroke="none">
 <path d="M737 2383 c-2 -2 -66 -4 -141 -4 -75 0 -135 -3 -132 -7 2 -4 -23 -5 -57 -4 -68 4 -278 -15 -314 -29 -35 -13 -28 -37 15 -48 65 -18 176 -26 168 -13 -4 7 -3 12 3 12 5 0 11 -5 13 -11 2 -7 46 -13 115 -17 l112 -5 31 32 c17 17 37 31 43 31 7 0 0 -8 -14 -17 -60 -37 -59 -30 -59 -652 0 -559 0 -569 -20 -574 -25 -6 -43 -53 -37 -93 3 -18 0 -37 -6 -43 -9 -9 -8 -11 6 -6 11 5 17 2 17 -6 0 -31 50 -118 98 -169 50 -56 175 -156 222 -180 29 -15 19 -4 -31 33 -20 14 -53 51 -73 81 -48 72 -47 85 2 16 96 -139 204 -171 435 -129 l77 14 2 535 c0 294 3 519 5 500 1 -19 6 -68 9 -107 l6 -73 26 14 c54 28 148 124 175 178 27 54 50 184 41 233 -12 65 -48 156 -82 207 -42 63 -117 134 -148 140 -17 3 -20 -5 -25 -77 -5 -74 -5 -70 -7 45 l-2 125 215 3 215 4 2 -614 c2 -338 0 -645 -3 -684 -6 -68 -6 -69 -7 -14 -2 50 -3 53 -16 34 -29 -41 -106 -201 -112 -232 -9 -43 10 -77 50 -93 17 -7 39 -19 48 -27 15 -13 18 -12 22 9 3 13 7 49 9 79 2 30 4 2 5 -62 l2 -118 103 -2 c80 -1 87 -3 35 -5 l-68 -4 35 -34 c34 -34 42 -37 125 -38 43 -1 104 14 122 30 9 8 36 21 60 28 l43 14 -65 2 -65 2 72 7 c140 15 243 66 312 154 31 39 31 39 31 167 0 103 -3 131 -16 143 -8 9 -20 16 -25 16 -5 0 -9 229 -9 579 l0 578 -26 39 -26 39 29 -28 c29 -27 31 -28 124 -22 230 15 323 44 237 74 -33 12 -209 32 -271 31 -18 0 -111 4 -207 8 -171 8 -1446 13 -1453 5z m-586 -56 c-6 -8 -8 -17 -4 -20 3 -4 2 -7 -4 -7 -17 0 -23 13 -12 27 6 7 16 13 21 13 7 0 6 -5 -1 -13z m2478 4 c14 -9 7 -31 -10 -31 -6 0 -7 5 -3 11 3 6 0 15 -7 20 -8 5 -9 9 -4 9 6 0 16 -4 24 -9z m-1961 -8 c-10 -2 -26 -2 -35 0 -10 3 -2 5 17 5 19 0 27 -2 18 -5z m1555 0 c-7 -2 -19 -2 -25 0 -7 3 -2 5 12 5 14 0 19 -2 13 -5z m372 -31 c-3 -3 -11 0 -18 7 -9 10 -8 11 6 5 10 -3 15 -9 12 -12z m-2418 1 c-4 -3 -10 -3 -14 0 -3 4 0 7 7 7 7 0 10 -3 7 -7z m430 -1310 c-2 -16 -4 -3 -4 27 0 30 2 43 4 28 2 -16 2 -40 0 -55z m10 -75 c-3 -7 -5 -2 -5 12 0 14 2 19 5 13 2 -7 2 -19 0 -25z m10 -40 c-3 -8 -6 -5 -6 6 -1 11 2 17 5 13 3 -3 4 -12 1 -19z m10 -40 c-3 -8 -6 -5 -6 6 -1 11 2 17 5 13 3 -3 4 -12 1 -19z m23 -53 c0 -5 -5 -3 -10 5 -5 8 -10 20 -10 25 0 6 5 3 10 -5 5 -8 10 -19 10 -25z"/>
 <path d="M2302 599 l-74 -79 56 0 c77 0 96 19 96 100 0 33 -1 60 -2 59 -2 0 -36 -36 -76 -80z"/>
 <path d="M464 607 c-14 -39 34 -91 80 -85 21 3 19 7 -26 51 -34 34 -50 44 -54 34z"/>
 <path d="M833 563 c4 -3 10 -3 14 0 3 4 0 7 -7 7 -7 0 -10 -3 -7 -7z"/>
 <path d="M1383 506 c-7 -8 -17 -16 -23 -18 -6 -2 -14 -22 -17 -44 -5 -38 -3 -41 23 -52 16 -6 46 -13 67 -17 21 -3 35 -10 32 -16 -10 -15 -82 -10 -99 7 -9 8 -16 12 -16 7 0 -21 27 -33 71 -33 38 0 51 5 63 22 24 34 20 82 -9 116 -18 22 -22 32 -13 35 7 3 -5 6 -27 6 -22 0 -45 -6 -52 -13z"/>
 <path d="M1193 433 c4 -3 10 -3 14 0 3 4 0 7 -7 7 -7 0 -10 -3 -7 -7z"/>
 <path d="M1089 416 c-25 -6 -65 -24 -90 -38 -62 -38 -182 -140 -172 -147 5 -3 21 -26 35 -51 15 -25 41 -59 60 -77 37 -35 108 -70 108 -53 0 6 4 9 9 6 14 -9 120 102 145 152 21 42 22 51 11 87 -6 22 -21 59 -33 82 -20 38 -20 42 -4 46 14 4 13 5 -3 5 -11 0 -41 -5 -66 -12z"/>
 <path d="M1670 405 c19 -23 -24 -165 -51 -165 -6 0 -6 -6 0 -19 6 -10 7 -21 4 -25 -3 -3 -1 -6 5 -6 7 0 12 -5 12 -10 0 -10 33 -52 83 -104 l29 -29 19 29 c11 16 27 45 35 64 8 19 25 46 38 60 12 14 33 39 45 57 l22 32 -58 39 c-74 50 -119 73 -161 83 -26 6 -31 4 -22 -6z"/>
 </g>
<g id="layer107" fill="#eb0c11" stroke="none">
 <path d="M737 2383 c-2 -2 -66 -4 -141 -4 -75 0 -135 -3 -132 -7 2 -4 -23 -5 -57 -4 -68 4 -278 -15 -314 -29 -35 -13 -28 -37 15 -48 65 -18 176 -26 168 -13 -4 7 -3 12 3 12 5 0 11 -5 13 -11 2 -7 46 -13 115 -17 l112 -5 31 32 c17 17 37 31 43 31 7 0 0 -8 -14 -17 -60 -37 -59 -30 -59 -652 0 -559 0 -569 -20 -574 -25 -6 -43 -53 -37 -93 3 -18 0 -37 -6 -43 -9 -9 -8 -11 6 -6 11 5 17 2 17 -6 0 -31 50 -118 98 -169 50 -56 175 -156 222 -180 29 -15 19 -4 -31 33 -33 23 -109 124 -109 143 0 4 18 -17 40 -47 65 -86 116 -119 218 -139 60 -12 99 -9 270 26 l22 4 2 533 c0 292 3 516 5 497 1 -19 6 -68 9 -107 l6 -73 26 14 c54 28 148 124 175 178 27 54 50 184 41 233 -12 65 -48 156 -82 207 -42 63 -117 134 -148 140 -17 3 -20 -5 -25 -77 -5 -73 -5 -69 -7 48 l-2 127 215 0 215 0 2 -613 c2 -337 0 -644 -3 -683 -6 -68 -6 -69 -7 -14 -2 50 -3 53 -16 34 -29 -41 -106 -201 -112 -232 -9 -43 10 -77 50 -93 17 -7 39 -19 48 -27 15 -13 18 -12 22 9 3 13 7 49 9 79 2 30 4 5 5 -56 l2 -111 61 -7 c94 -9 306 -7 377 4 96 16 166 46 222 97 74 67 80 82 80 222 0 95 -3 123 -16 135 -8 9 -20 16 -25 16 -5 0 -9 229 -9 579 l0 578 -26 39 -26 39 29 -28 c29 -27 31 -28 124 -22 230 15 323 44 237 74 -33 12 -209 32 -271 31 -18 0 -111 4 -207 8 -171 8 -1446 13 -1453 5z m-586 -56 c-6 -8 -8 -17 -4 -20 3 -4 2 -7 -4 -7 -17 0 -23 13 -12 27 6 7 16 13 21 13 7 0 6 -5 -1 -13z m2478 4 c14 -9 7 -31 -10 -31 -6 0 -7 5 -3 11 3 6 0 15 -7 20 -8 5 -9 9 -4 9 6 0 16 -4 24 -9z m-1961 -8 c-10 -2 -26 -2 -35 0 -10 3 -2 5 17 5 19 0 27 -2 18 -5z m1555 0 c-7 -2 -19 -2 -25 0 -7 3 -2 5 12 5 14 0 19 -2 13 -5z m372 -31 c-3 -3 -11 0 -18 7 -9 10 -8 11 6 5 10 -3 15 -9 12 -12z m-2418 1 c-4 -3 -10 -3 -14 0 -3 4 0 7 7 7 7 0 10 -3 7 -7z m430 -1310 c-2 -16 -4 -3 -4 27 0 30 2 43 4 28 2 -16 2 -40 0 -55z m16 -63 c3 -11 1 -20 -4 -20 -5 0 -9 9 -9 20 0 11 2 20 4 20 2 0 6 -9 9 -20z m4 -52 c-3 -8 -6 -5 -6 6 -1 11 2 17 5 13 3 -3 4 -12 1 -19z m17 -33 c3 -8 1 -15 -4 -15 -6 0 -10 7 -10 15 0 8 2 15 4 15 2 0 6 -7 10 -15z m16 -53 c0 -15 -2 -15 -10 -2 -13 20 -13 33 0 25 6 -3 10 -14 10 -23z"/>
 <path d="M2301 599 l-74 -79 57 0 c77 0 96 19 96 100 0 33 -1 60 -2 59 -2 0 -36 -36 -77 -80z"/>
 <path d="M464 607 c-14 -37 35 -92 76 -85 16 3 12 10 -26 50 -29 31 -47 43 -50 35z"/>
 <path d="M1744 555 c35 -34 42 -37 126 -38 43 -1 104 14 122 30 9 8 36 21 60 28 39 12 26 13 -150 14 l-193 1 35 -35z"/>
 <path d="M833 563 c4 -3 10 -3 14 0 3 4 0 7 -7 7 -7 0 -10 -3 -7 -7z"/>
 <path d="M1383 506 c-7 -8 -17 -16 -23 -18 -6 -2 -14 -22 -17 -44 -5 -38 -3 -41 23 -52 16 -6 46 -13 67 -17 21 -3 35 -10 32 -16 -10 -15 -82 -10 -99 7 -9 8 -16 12 -16 7 0 -21 27 -33 71 -33 38 0 51 5 63 22 24 34 20 82 -9 116 -18 22 -22 32 -13 35 7 3 -5 6 -27 6 -22 0 -45 -6 -52 -13z"/>
 <path d="M1193 433 c4 -3 10 -3 14 0 3 4 0 7 -7 7 -7 0 -10 -3 -7 -7z"/>
 <path d="M1089 416 c-25 -6 -65 -24 -90 -38 -62 -38 -182 -140 -172 -147 5 -3 21 -26 35 -51 15 -25 41 -59 60 -77 37 -35 108 -70 108 -53 0 6 4 9 9 6 14 -9 120 102 145 152 21 42 22 51 11 87 -6 22 -21 59 -33 82 -20 38 -20 42 -4 46 14 4 13 5 -3 5 -11 0 -41 -5 -66 -12z"/>
 <path d="M1670 405 c19 -23 -24 -165 -51 -165 -6 0 -6 -6 0 -19 6 -10 7 -21 4 -25 -3 -3 -1 -6 5 -6 7 0 12 -5 12 -10 0 -10 33 -52 83 -104 l29 -29 19 29 c11 16 27 45 35 64 8 19 25 46 38 60 12 14 33 39 45 57 l22 32 -58 39 c-74 50 -119 73 -161 83 -26 6 -31 4 -22 -6z"/>
 </g>
<g id="layer108" fill="#cc272b" stroke="none">
 <path d="M737 2383 c-2 -2 -66 -4 -141 -4 -75 0 -135 -3 -132 -7 2 -4 -23 -5 -57 -4 -68 4 -278 -15 -314 -29 -35 -13 -28 -37 15 -48 65 -18 176 -26 168 -13 -4 7 -3 12 3 12 5 0 11 -5 13 -11 2 -7 46 -13 115 -17 l112 -5 31 32 c17 17 37 31 43 31 7 0 0 -8 -14 -17 -60 -37 -59 -30 -59 -652 0 -559 0 -569 -20 -574 -31 -8 -55 -96 -31 -111 5 -4 36 16 69 44 33 27 62 50 65 50 3 0 7 -30 10 -68 5 -67 12 -109 24 -147 4 -11 7 -23 8 -27 0 -3 3 -10 8 -14 4 -4 7 -15 7 -24 0 -19 70 -117 103 -143 40 -33 92 -55 155 -67 60 -12 99 -9 270 26 l22 4 0 860 0 860 215 0 215 0 0 -612 c1 -337 1 -721 0 -854 l-1 -241 62 -7 c94 -9 306 -7 377 4 96 16 166 46 222 97 74 67 80 82 80 222 0 95 -3 123 -16 135 -8 9 -20 16 -25 16 -5 0 -9 229 -9 579 l0 578 -26 39 -26 39 29 -28 c29 -27 31 -28 124 -22 230 15 323 44 237 74 -33 12 -209 32 -271 31 -18 0 -111 4 -207 8 -171 8 -1446 13 -1453 5z m-586 -56 c-6 -8 -8 -17 -4 -20 3 -4 2 -7 -4 -7 -17 0 -23 13 -12 27 6 7 16 13 21 13 7 0 6 -5 -1 -13z m2478 4 c14 -9 7 -31 -10 -31 -6 0 -7 5 -3 11 3 6 0 15 -7 20 -8 5 -9 9 -4 9 6 0 16 -4 24 -9z m-1961 -8 c-10 -2 -26 -2 -35 0 -10 3 -2 5 17 5 19 0 27 -2 18 -5z m1555 0 c-7 -2 -19 -2 -25 0 -7 3 -2 5 12 5 14 0 19 -2 13 -5z m372 -31 c-3 -3 -11 0 -18 7 -9 10 -8 11 6 5 10 -3 15 -9 12 -12z m-2418 1 c-4 -3 -10 -3 -14 0 -3 4 0 7 7 7 7 0 10 -3 7 -7z"/>
 <path d="M2301 599 l-74 -79 57 0 c77 0 96 19 96 100 0 33 -1 60 -2 59 -2 0 -36 -36 -77 -80z"/>
 <path d="M464 607 c-14 -37 35 -92 76 -85 16 3 12 10 -26 50 -29 31 -47 43 -50 35z"/>
 </g>
<g id="layer109" fill="#6e6e6e" stroke="none">
 <path d="M737 2383 c-2 -2 -66 -4 -141 -4 -75 0 -135 -3 -132 -7 2 -4 -23 -5 -57 -4 -68 4 -278 -15 -314 -29 -35 -13 -28 -37 15 -48 65 -18 176 -26 168 -13 -4 7 -3 12 3 12 5 0 11 -5 13 -11 2 -7 46 -13 115 -17 l112 -5 31 32 c17 17 37 31 43 31 7 0 0 -8 -14 -17 -60 -37 -59 -30 -59 -651 l0 -567 -22 -10 c-25 -11 -46 -71 -34 -100 5 -14 16 -8 71 35 36 29 67 51 69 49 1 -2 8 -45 14 -95 31 -238 123 -360 299 -394 61 -12 100 -9 271 26 l22 4 0 860 0 860 215 0 215 0 0 -612 c1 -337 1 -721 0 -854 l-1 -241 62 -7 c94 -9 306 -7 377 4 96 16 166 46 222 97 74 67 80 82 80 222 0 95 -3 123 -16 135 -8 9 -20 16 -25 16 -5 0 -9 229 -9 579 l0 578 -26 39 -26 39 29 -28 c29 -27 31 -28 124 -22 230 15 323 44 237 74 -33 12 -209 32 -271 31 -18 0 -111 4 -207 8 -171 8 -1446 13 -1453 5z m-586 -56 c-6 -8 -8 -17 -4 -20 3 -4 2 -7 -4 -7 -17 0 -23 13 -12 27 6 7 16 13 21 13 7 0 6 -5 -1 -13z m2478 4 c14 -9 7 -31 -10 -31 -6 0 -7 5 -3 11 3 6 0 15 -7 20 -8 5 -9 9 -4 9 6 0 16 -4 24 -9z m-1961 -8 c-10 -2 -26 -2 -35 0 -10 3 -2 5 17 5 19 0 27 -2 18 -5z m1555 0 c-7 -2 -19 -2 -25 0 -7 3 -2 5 12 5 14 0 19 -2 13 -5z m372 -31 c-3 -3 -11 0 -18 7 -9 10 -8 11 6 5 10 -3 15 -9 12 -12z m-2418 1 c-4 -3 -10 -3 -14 0 -3 4 0 7 7 7 7 0 10 -3 7 -7z"/>
 <path d="M2301 599 l-74 -79 57 0 c77 0 96 19 96 100 0 33 -1 60 -2 59 -2 0 -36 -36 -77 -80z"/>
 <path d="M464 607 c-14 -37 35 -92 76 -85 16 3 12 10 -26 50 -29 31 -47 43 -50 35z"/>
 </g>
<g id="layer110" fill="#7b8484" stroke="none">
 <path d="M773 2383 c9 -2 25 -2 35 0 9 3 1 5 -18 5 -19 0 -27 -2 -17 -5z"/>
 <path d="M893 2383 c9 -2 23 -2 30 0 6 3 -1 5 -18 5 -16 0 -22 -2 -12 -5z"/>
 <path d="M1043 2383 c4 -3 10 -3 14 0 3 4 0 7 -7 7 -7 0 -10 -3 -7 -7z"/>
 <path d="M1833 2383 c9 -2 23 -2 30 0 6 3 -1 5 -18 5 -16 0 -22 -2 -12 -5z"/>
 <path d="M1963 2383 c9 -2 25 -2 35 0 9 3 1 5 -18 5 -19 0 -27 -2 -17 -5z"/>
 <path d="M450 2370 c-10 -6 -2 -7 25 -3 49 7 58 13 19 13 -16 0 -36 -5 -44 -10z"/>
 <path d="M583 2373 c4 -3 10 -3 14 0 3 4 0 7 -7 7 -7 0 -10 -3 -7 -7z"/>
 <path d="M2168 2373 c7 -3 16 -2 19 1 4 3 -2 6 -13 5 -11 0 -14 -3 -6 -6z"/>
 <path d="M2250 2376 c0 -2 15 -6 34 -8 19 -2 32 0 30 4 -5 8 -64 12 -64 4z"/>
 <path d="M265 2360 c-14 -7 -8 -8 20 -3 22 3 42 7 44 9 9 8 -45 2 -64 -6z"/>
 <path d="M378 2363 c7 -3 16 -2 19 1 4 3 -2 6 -13 5 -11 0 -14 -3 -6 -6z"/>
 <path d="M2443 2363 c9 -2 23 -2 30 0 6 3 -1 5 -18 5 -16 0 -22 -2 -12 -5z"/>
 <path d="M180 2350 c0 -5 4 -10 9 -10 6 0 13 5 16 10 3 6 -1 10 -9 10 -9 0 -16 -4 -16 -10z"/>
 <path d="M2498 2353 c7 -3 16 -2 19 1 4 3 -2 6 -13 5 -11 0 -14 -3 -6 -6z"/>
 <path d="M2563 2349 c14 -8 22 -8 30 0 8 8 3 11 -18 11 -26 -1 -28 -2 -12 -11z"/>
 <path d="M93 2340 c-35 -14 -28 -38 15 -49 50 -15 75 -13 33 2 -44 15 -49 32 -14 45 21 8 23 10 8 11 -11 0 -30 -4 -42 -9z"/>
 <path d="M2644 2334 c32 -18 27 -28 -24 -43 l-35 -11 40 6 c44 6 75 20 75 33 0 9 -54 31 -74 31 -6 -1 2 -8 18 -16z"/>
 <path d="M583 2301 c-65 -41 -63 -21 -63 -648 l0 -568 -22 -10 c-25 -11 -46 -71 -34 -100 5 -14 16 -8 71 35 36 29 67 51 69 49 1 -2 8 -45 14 -95 25 -196 104 -328 223 -373 78 -29 139 -31 255 -9 l114 21 0 238 0 239 -32 1 -33 1 30 7 30 6 3 601 2 601 -92 6 c-51 4 -185 9 -298 13 -195 5 -207 5 -237 -15z"/>
 <path d="M1653 2313 c-10 -4 -13 -130 -13 -586 0 -320 3 -592 6 -604 5 -19 13 -23 49 -23 23 0 64 -3 91 -7 45 -7 42 -8 -46 -13 l-95 -5 -3 -231 -2 -231 76 -7 c110 -9 268 -7 344 4 144 21 220 60 287 149 l33 43 0 123 c0 99 -3 127 -16 139 -8 9 -20 16 -25 16 -5 0 -9 228 -9 576 0 525 -2 578 -17 605 -33 56 -53 59 -365 58 -155 0 -289 -3 -295 -6z"/>
 <path d="M200 2280 c0 -5 12 -10 28 -10 21 0 24 2 12 10 -20 13 -40 13 -40 0z"/>
 <path d="M2525 2280 c-3 -5 3 -10 15 -10 12 0 18 5 15 10 -3 6 -10 10 -15 10 -5 0 -12 -4 -15 -10z"/>
 <path d="M298 2273 c6 -2 18 -2 25 0 6 3 1 5 -13 5 -14 0 -19 -2 -12 -5z"/>
 <path d="M2438 2273 c7 -3 16 -2 19 1 4 3 -2 6 -13 5 -11 0 -14 -3 -6 -6z"/>
 <path d="M373 2263 c9 -2 23 -2 30 0 6 3 -1 5 -18 5 -16 0 -22 -2 -12 -5z"/>
 <path d="M448 2263 c7 -3 16 -2 19 1 4 3 -2 6 -13 5 -11 0 -14 -3 -6 -6z"/>
 <path d="M2363 2263 c9 -2 23 -2 30 0 6 3 -1 5 -18 5 -16 0 -22 -2 -12 -5z"/>
 <path d="M2335 630 c-21 -27 -52 -58 -67 -70 -40 -30 -35 -40 22 -40 71 0 90 21 90 100 0 33 -1 60 -3 60 -1 0 -20 -22 -42 -50z"/>
 <path d="M464 607 c-14 -37 35 -92 76 -85 16 3 12 10 -26 50 -29 31 -47 43 -50 35z"/>
 </g>
<g id="layer111" fill="#959393" stroke="none">
 <path d="M883 2383 c4 -3 10 -3 14 0 3 4 0 7 -7 7 -7 0 -10 -3 -7 -7z"/>
 <path d="M589 2303 c-16 -6 -38 -27 -49 -45 -19 -32 -20 -49 -20 -603 l0 -570 -22 -10 c-25 -11 -46 -71 -34 -100 5 -14 16 -8 71 35 36 29 67 51 69 49 1 -2 8 -46 14 -97 22 -166 78 -277 172 -340 83 -56 168 -65 328 -35 l92 17 0 238 0 238 -102 1 -103 2 90 9 c50 4 96 10 103 13 18 6 18 1183 0 1190 -7 3 -141 8 -297 13 -212 5 -291 4 -312 -5z"/>
 <path d="M1645 2287 c-9 -33 -1 -1164 7 -1172 4 -4 58 -11 120 -16 62 -4 115 -9 118 -10 3 -2 -51 -6 -120 -9 l-125 -5 -3 -231 -2 -231 82 -6 c278 -22 477 11 572 94 78 69 86 89 86 227 0 96 -3 124 -16 136 -8 9 -20 16 -25 16 -5 0 -9 229 -9 579 l0 580 -34 35 -33 36 -306 0 -307 0 -5 -23z"/>
 <path d="M2335 630 c-21 -27 -52 -58 -67 -70 -40 -30 -35 -40 22 -40 71 0 90 21 90 100 0 33 -1 60 -3 60 -1 0 -20 -22 -42 -50z"/>
 <path d="M464 607 c-14 -37 35 -92 76 -85 16 3 12 10 -26 50 -29 31 -47 43 -50 35z"/>
 </g>
<g id="layer112" fill="#99abab" stroke="none">
 <path d="M883 2383 c4 -3 10 -3 14 0 3 4 0 7 -7 7 -7 0 -10 -3 -7 -7z"/>
 <path d="M572 2295 c-53 -38 -52 -30 -52 -642 l0 -568 -22 -10 c-25 -11 -46 -71 -35 -99 6 -14 18 -8 74 38 l68 55 12 -86 c22 -162 52 -240 124 -318 78 -85 183 -108 358 -79 l111 18 0 238 0 238 -172 0 c-94 0 -169 2 -166 5 3 3 76 9 163 14 114 6 160 13 166 22 11 17 12 1139 1 1155 -8 13 -123 22 -407 30 -176 5 -203 4 -223 -11z"/>
 <path d="M1644 2233 c-7 -77 0 -1100 7 -1108 2 -2 63 -9 134 -15 196 -17 205 -28 24 -29 l-156 -1 -7 -77 c-8 -97 -8 -252 0 -330 l7 -60 136 -6 c118 -5 338 6 256 13 -23 2 -17 5 30 16 70 15 100 17 70 3 -15 -6 -11 -7 15 -3 76 14 174 84 204 148 23 48 23 258 0 280 -8 9 -20 16 -25 16 -5 0 -9 229 -9 579 l0 580 -34 35 -33 36 -306 0 -305 0 -8 -77z"/>
 <path d="M2307 595 l-68 -75 50 0 c70 0 91 22 91 95 0 30 -1 55 -3 55 -1 0 -33 -34 -70 -75z"/>
 <path d="M2088 623 c6 -2 18 -2 25 0 6 3 1 5 -13 5 -14 0 -19 -2 -12 -5z"/>
 <path d="M464 583 c9 -36 41 -63 74 -63 25 0 25 1 -18 45 -51 52 -65 56 -56 18z"/>
 </g>
<g id="layer113" fill="#b3b3b3" stroke="none">
 <path d="M883 2383 c4 -3 10 -3 14 0 3 4 0 7 -7 7 -7 0 -10 -3 -7 -7z"/>
 <path d="M574 2293 c-56 -49 -54 -24 -54 -640 l0 -568 -22 -10 c-25 -11 -46 -71 -35 -99 6 -14 18 -8 74 38 l68 55 7 -52 c19 -138 33 -194 64 -256 32 -64 71 -112 97 -118 6 -1 39 -11 72 -22 82 -27 213 -39 291 -27 61 9 64 11 69 40 3 17 5 123 3 236 l-3 205 -215 5 c-233 5 -214 13 66 26 l142 7 6 36 c8 47 8 1045 0 1092 l-6 36 -142 13 c-77 7 -213 15 -301 17 -142 3 -162 1 -181 -14z"/>
 <path d="M1645 2183 c-9 -140 1 -995 11 -1030 5 -18 16 -23 63 -28 123 -14 275 -36 280 -40 2 -3 -73 -5 -167 -5 -94 0 -173 -4 -176 -8 -10 -17 -18 -255 -11 -356 l7 -107 126 4 c80 2 168 12 237 26 66 14 129 21 158 18 42 -4 55 0 95 27 25 17 59 48 76 69 30 37 31 43 34 154 4 132 0 159 -28 168 -20 6 -20 15 -20 585 l0 579 -34 35 -33 36 -306 0 -305 0 -7 -127z"/>
 <path d="M2309 597 l-67 -73 48 6 c27 3 55 12 64 19 17 14 30 66 24 100 -3 19 -13 11 -69 -52z"/>
 <path d="M460 596 c0 -15 45 -66 59 -66 5 0 18 -3 28 -6 10 -4 -2 14 -27 40 -46 48 -60 55 -60 32z"/>
 </g>
<g id="layer114" fill="#b7c9c9" stroke="none">
 <path d="M582 2297 c-13 -7 -32 -28 -43 -45 -19 -32 -19 -51 -17 -595 l3 -562 44 -3 c25 -2 155 6 290 17 135 12 267 22 292 23 l46 2 7 75 c8 97 8 862 -1 969 l-6 82 -31 0 c-17 0 -98 10 -181 22 -189 26 -371 33 -403 15z"/>
 <path d="M1673 2300 l-23 -9 0 -538 c0 -296 3 -548 6 -560 5 -17 14 -23 33 -23 14 0 54 -9 89 -20 35 -11 113 -28 173 -39 61 -10 113 -22 116 -25 4 -3 -34 -6 -84 -6 -49 0 -145 -3 -211 -7 l-122 -6 0 -229 0 -228 88 2 c86 1 86 1 27 8 l-60 7 65 1 c36 1 133 15 215 32 151 30 209 36 240 23 15 -5 14 -8 -6 -19 -13 -7 -19 -13 -13 -14 24 0 109 67 139 108 28 41 30 50 33 154 4 127 0 154 -28 163 -20 6 -20 15 -20 584 l0 577 -29 34 -29 35 -288 2 c-160 1 -299 -2 -311 -7z"/>
 <path d="M494 1066 c-22 -16 -39 -96 -21 -96 4 0 36 22 69 50 34 27 65 47 68 45 4 -2 8 -31 9 -64 4 -127 60 -279 125 -338 26 -24 28 -24 10 -3 -38 45 -37 52 2 26 79 -52 144 -66 300 -66 l143 0 6 53 c8 62 3 383 -6 391 -3 4 -159 9 -345 12 -300 5 -341 4 -360 -10z"/>
 <path d="M2306 592 c-38 -42 -63 -71 -56 -64 8 6 27 12 43 12 47 0 67 16 67 56 0 19 5 44 10 55 6 10 9 19 8 19 -2 0 -34 -35 -72 -78z"/>
 <path d="M482 585 c6 -14 22 -32 36 -41 22 -14 21 -11 -8 25 -39 47 -44 51 -28 16z"/>
 <path d="M1163 603 c9 -2 23 -2 30 0 6 3 -1 5 -18 5 -16 0 -22 -2 -12 -5z"/>
 <path d="M1103 593 c4 -3 10 -3 14 0 3 4 0 7 -7 7 -7 0 -10 -3 -7 -7z"/>
 </g>
<g id="layer115" fill="#d3d4d4" stroke="none">
 <path d="M582 2297 c-13 -7 -32 -28 -42 -45 -19 -31 -20 -54 -20 -592 l0 -559 98 5 c107 5 348 28 487 47 l90 12 8 110 c9 127 3 911 -8 937 -4 10 -11 15 -16 12 -5 -3 -64 9 -131 25 -212 52 -421 74 -466 48z"/>
 <path d="M1735 2296 l-80 -11 -3 -470 c-2 -259 0 -497 3 -531 l6 -61 50 -12 c27 -7 85 -28 130 -47 44 -19 126 -43 182 -55 56 -11 104 -22 106 -25 2 -2 -27 -4 -66 -4 -173 0 -400 -14 -402 -24 -6 -26 -12 -371 -6 -393 5 -21 10 -23 74 -23 38 0 140 13 226 30 88 17 190 30 232 30 70 0 74 -1 62 -17 -12 -16 -11 -16 16 1 94 58 114 105 110 251 -3 117 -5 134 -14 133 -37 -4 -36 -22 -33 582 3 646 5 617 -65 646 -40 17 -406 17 -528 0z"/>
 <path d="M550 1072 c-56 -4 -70 -16 -70 -57 0 -19 -6 -36 -12 -38 -8 -4 -9 -6 -2 -6 7 -1 40 21 75 48 35 27 66 48 70 46 3 -3 7 -30 8 -62 3 -101 43 -235 85 -288 13 -17 15 -17 10 -2 -5 13 7 10 52 -17 92 -55 167 -70 308 -62 66 3 122 9 125 12 8 7 8 410 1 418 -6 6 -579 13 -650 8z"/>
 <path d="M2319 607 l-56 -63 33 4 c38 5 54 20 58 54 1 13 8 33 15 46 6 12 10 22 9 22 -2 0 -28 -28 -59 -63z"/>
 <path d="M480 592 c0 -5 12 -19 27 -33 l26 -24 -23 33 c-25 33 -30 38 -30 24z"/>
 </g>
<g id="layer116" fill="#dfe0e1" stroke="none">
 <path d="M594 2300 c-12 -5 -34 -24 -48 -43 l-26 -34 0 -541 0 -540 29 -7 c16 -3 85 -1 153 5 148 13 159 15 318 47 69 15 136 27 150 28 l25 2 6 224 c3 123 3 334 0 467 l-6 244 -55 4 c-38 3 -85 19 -160 55 -106 51 -207 79 -283 79 -31 0 -38 3 -27 10 19 13 -45 13 -76 0z"/>
 <path d="M2245 2295 c-5 -2 -136 -5 -289 -8 -256 -4 -280 -6 -293 -23 -10 -14 -13 -106 -12 -458 0 -446 4 -523 28 -518 19 4 128 -37 185 -70 138 -79 285 -127 393 -128 l41 0 6 108 c3 59 10 152 16 207 6 55 10 264 10 465 l0 366 -29 32 c-29 31 -35 34 -56 27z"/>
 <path d="M1900 1070 c-52 -4 -126 -15 -165 -26 -84 -23 -83 -19 -84 -204 -1 -194 -7 -184 103 -176 50 4 134 16 186 26 125 25 239 40 307 40 l56 0 -24 -27 -24 -26 32 23 c18 13 43 40 56 59 21 33 23 47 23 158 -1 78 -5 126 -13 134 -25 25 -234 34 -453 19z"/>
 <path d="M550 1063 c-44 -6 -60 -19 -60 -49 0 -13 -8 -28 -17 -33 -10 -6 -13 -11 -6 -11 11 0 123 87 123 96 0 2 -1 3 -2 2 -2 0 -19 -3 -38 -5z"/>
 <path d="M620 1015 c0 -61 22 -167 44 -215 9 -19 14 -26 11 -14 -4 15 8 8 43 -26 96 -93 169 -111 395 -100 l87 4 1 105 c2 151 -2 265 -9 273 -4 4 -134 11 -290 15 l-282 8 0 -50z"/>
 <path d="M2370 840 c0 -7 3 -10 7 -7 3 4 3 10 0 14 -4 3 -7 0 -7 -7z"/>
 <path d="M2310 597 c-42 -47 -48 -56 -23 -39 28 20 54 50 77 90 13 22 2 12 -54 -51z"/>
 <path d="M490 576 c0 -2 8 -10 18 -17 15 -13 16 -12 3 4 -13 16 -21 21 -21 13z"/>
 </g>
<g id="layer117" fill="#daeaea" stroke="none">
 <path d="M579 2293 c-1 -5 -1 -12 0 -16 1 -5 -3 -6 -8 -3 -11 7 -28 -13 -29 -34 0 -8 -6 -243 -13 -521 l-13 -506 21 -22 c19 -21 27 -22 95 -17 100 9 256 42 359 77 48 16 95 29 105 29 11 0 32 7 48 15 16 9 30 14 31 13 1 -2 7 -12 13 -23 9 -15 11 86 11 400 0 309 -3 414 -11 398 -13 -27 -21 -28 -102 -7 -70 18 -170 70 -232 120 -51 42 -122 69 -204 79 -33 4 -57 11 -54 16 3 5 0 9 -5 9 -6 0 -12 -3 -12 -7z"/>
 <path d="M2278 2278 c8 -10 -30 -13 -186 -12 -168 1 -297 -5 -400 -19 -13 -2 -28 -10 -33 -18 -11 -18 -12 -830 0 -848 5 -8 25 -15 44 -16 51 -4 127 -31 181 -65 26 -17 51 -30 56 -30 4 0 10 -4 12 -8 6 -15 121 -88 167 -106 25 -10 64 -21 88 -25 39 -8 46 -6 58 13 20 30 35 189 40 431 6 220 11 354 21 545 6 114 6 115 -21 143 -26 27 -47 38 -27 15z"/>
 <path d="M524 2228 c-4 -7 -3 -8 4 -4 12 7 16 16 8 16 -3 0 -8 -5 -12 -12z"/>
 <path d="M565 1056 c-11 -8 -25 -12 -31 -9 -7 2 -15 -1 -20 -8 -5 -9 -2 -10 12 -5 22 8 21 7 -30 -33 -21 -17 -34 -31 -28 -31 10 0 122 87 122 96 0 7 -5 5 -25 -10z"/>
 <path d="M1916 1061 c-4 -6 -18 -11 -31 -11 -28 0 -203 -58 -223 -73 -9 -7 -12 -45 -10 -146 l3 -136 91 1 c51 1 141 11 200 23 156 30 297 51 344 51 52 0 59 15 67 147 8 150 19 143 -235 150 -144 4 -201 3 -206 -6z"/>
 <path d="M623 980 c4 -41 13 -95 22 -120 8 -25 13 -34 10 -20 -3 14 -8 45 -10 70 l-6 45 39 -78 c85 -171 159 -207 370 -181 97 13 126 14 137 4 13 -11 15 9 15 159 0 126 -3 170 -11 165 -17 -10 -173 -5 -211 7 -18 6 -107 14 -197 17 l-164 7 6 -75z"/>
 <path d="M2370 840 c0 -7 3 -10 7 -7 3 4 3 10 0 14 -4 3 -7 0 -7 -7z"/>
 <path d="M660 805 c0 -5 5 -17 10 -25 5 -8 10 -10 10 -5 0 6 -5 17 -10 25 -5 8 -10 11 -10 5z"/>
 <path d="M2360 802 c0 -4 -24 -35 -52 -67 -29 -33 -40 -50 -25 -38 47 36 103 113 82 113 -3 0 -5 -4 -5 -8z"/>
 <path d="M2305 588 l-50 -53 53 50 c48 46 57 55 49 55 -1 0 -25 -24 -52 -52z"/>
 <path d="M490 576 c0 -2 8 -10 18 -17 15 -13 16 -12 3 4 -13 16 -21 21 -21 13z"/>
 </g>
<g id="layer118" fill="#f7f8f8" stroke="none">
 <path d="M559 2273 c-8 -10 -21 -27 -29 -38 l-15 -20 24 20 c14 12 21 14 15 5 -8 -14 -17 -259 -29 -830 -2 -118 0 -206 4 -195 7 18 8 17 14 -6 6 -25 7 -25 79 -17 84 9 214 35 243 48 11 5 38 14 60 20 22 6 49 15 60 19 29 12 157 43 180 45 11 0 23 6 27 11 9 12 10 660 1 693 -4 16 -8 20 -13 12 -12 -19 -131 4 -197 38 -47 24 -182 113 -229 151 -20 16 -86 33 -139 34 -41 2 -51 5 -43 15 6 6 8 12 6 12 -3 0 -11 -8 -19 -17z"/>
 <path d="M2270 2286 c0 -2 7 -9 15 -16 9 -7 15 -8 15 -2 0 5 -7 12 -15 16 -8 3 -15 4 -15 2z"/>
 <path d="M1815 2244 c-55 -7 -112 -17 -126 -22 l-26 -10 -7 -262 c-4 -143 -4 -328 0 -411 6 -143 8 -149 27 -143 10 3 29 2 41 -4 11 -5 48 -17 81 -28 33 -10 84 -33 113 -51 29 -18 57 -33 62 -33 6 0 10 -4 10 -9 0 -23 168 -119 223 -128 30 -4 37 -2 48 18 21 41 39 264 49 619 12 422 12 418 -2 444 -10 19 -10 20 5 7 10 -7 17 -9 17 -3 0 27 -32 32 -221 30 -107 -1 -239 -7 -294 -14z"/>
 <path d="M1960 1060 c-8 -5 -25 -10 -37 -10 -13 0 -69 -16 -125 -36 -57 -20 -110 -37 -118 -38 -12 -2 -15 -26 -15 -137 l0 -134 90 2 c50 1 133 11 185 22 52 11 131 25 175 31 44 6 98 15 120 20 22 5 54 10 72 10 37 0 39 6 48 140 8 112 5 116 -110 129 -112 14 -265 14 -285 1z"/>
 <path d="M538 1029 l-33 -31 38 27 c20 15 37 29 37 31 0 10 -12 2 -42 -27z"/>
 <path d="M620 1008 c0 -33 4 -47 13 -45 6 1 28 -30 47 -70 70 -143 139 -197 250 -194 33 0 71 6 85 11 14 5 61 12 103 14 l77 4 0 139 0 138 -100 0 c-64 1 -122 7 -160 18 -33 10 -117 21 -187 25 l-128 7 0 -47z"/>
 <path d="M630 920 c0 -7 3 -10 7 -7 3 4 3 10 0 14 -4 3 -7 0 -7 -7z"/>
 <path d="M2326 752 c-22 -27 -24 -32 -7 -17 20 17 47 55 39 55 -2 0 -16 -17 -32 -38z"/>
 <path d="M2309 593 l-34 -38 38 34 c20 19 37 36 37 38 0 8 -8 0 -41 -34z"/>
 </g>

</svg>